<mxfile host="app.diagrams.net" agent="Mozilla/5.0 (Windows NT 10.0; Win64; x64) AppleWebKit/537.36 (KHTML, like Gecko) Chrome/133.0.0.0 Safari/537.36" version="26.0.16">
  <diagram name="Page-1" id="0783ab3e-0a74-02c8-0abd-f7b4e66b4bec">
    <mxGraphModel dx="1480" dy="778" grid="0" gridSize="10" guides="1" tooltips="1" connect="1" arrows="1" fold="1" page="1" pageScale="1" pageWidth="850" pageHeight="1100" background="none" math="0" shadow="0">
      <root>
        <mxCell id="0" />
        <mxCell id="1" parent="0" />
        <mxCell id="1c1d494c118603dd-1" value="Cancel Class" style="swimlane;html=1;childLayout=stackLayout;startSize=20;rounded=0;shadow=0;comic=0;labelBackgroundColor=none;strokeWidth=1;fontFamily=Verdana;fontSize=12;align=center;" parent="1" vertex="1">
          <mxGeometry width="886" height="592" as="geometry" />
        </mxCell>
        <mxCell id="1c1d494c118603dd-2" value="Student" style="swimlane;html=1;startSize=20;" parent="1c1d494c118603dd-1" vertex="1">
          <mxGeometry y="20" width="216" height="572" as="geometry" />
        </mxCell>
        <mxCell id="60571a20871a0731-4" value="" style="ellipse;whiteSpace=wrap;html=1;rounded=0;shadow=0;comic=0;labelBackgroundColor=none;strokeWidth=1;fillColor=#000000;fontFamily=Verdana;fontSize=12;align=center;" parent="1c1d494c118603dd-2" vertex="1">
          <mxGeometry x="100" y="40" width="40" height="40" as="geometry" />
        </mxCell>
        <mxCell id="60571a20871a0731-8" value="Request Class Cancellation" style="rounded=1;whiteSpace=wrap;html=1;shadow=0;comic=0;labelBackgroundColor=none;strokeWidth=1;fontFamily=Verdana;fontSize=12;align=center;arcSize=50;" parent="1c1d494c118603dd-2" vertex="1">
          <mxGeometry x="70" y="110" width="100" height="30" as="geometry" />
        </mxCell>
        <mxCell id="1c1d494c118603dd-27" style="edgeStyle=orthogonalEdgeStyle;rounded=0;html=1;labelBackgroundColor=none;startArrow=none;startFill=0;startSize=5;endArrow=classicThin;endFill=1;endSize=5;jettySize=auto;orthogonalLoop=1;strokeWidth=1;fontFamily=Verdana;fontSize=12" parent="1c1d494c118603dd-2" source="60571a20871a0731-4" target="60571a20871a0731-8" edge="1">
          <mxGeometry relative="1" as="geometry" />
        </mxCell>
        <mxCell id="1c1d494c118603dd-28" style="edgeStyle=orthogonalEdgeStyle;rounded=0;html=1;labelBackgroundColor=none;startArrow=none;startFill=0;startSize=5;endArrow=classicThin;endFill=1;endSize=5;jettySize=auto;orthogonalLoop=1;strokeWidth=1;fontFamily=Verdana;fontSize=12;entryX=0.5;entryY=0;entryDx=0;entryDy=0;" parent="1c1d494c118603dd-1" source="60571a20871a0731-8" target="1c1d494c118603dd-6" edge="1">
          <mxGeometry relative="1" as="geometry">
            <Array as="points">
              <mxPoint x="659" y="145" />
            </Array>
            <mxPoint x="470" y="170" as="targetPoint" />
          </mxGeometry>
        </mxCell>
        <mxCell id="1c1d494c118603dd-3" value="System" style="swimlane;html=1;startSize=20;" parent="1c1d494c118603dd-1" vertex="1">
          <mxGeometry x="216" y="20" width="670" height="572" as="geometry" />
        </mxCell>
        <mxCell id="1c1d494c118603dd-6" value="Validate Cancellation Request" style="rounded=1;whiteSpace=wrap;html=1;shadow=0;comic=0;labelBackgroundColor=none;strokeWidth=1;fontFamily=Verdana;fontSize=12;align=center;arcSize=50;" parent="1c1d494c118603dd-3" vertex="1">
          <mxGeometry x="350" y="150" width="186.5" height="30" as="geometry" />
        </mxCell>
        <mxCell id="vuhNljjnOxjqlDmO4YdQ-4" value="Eligible for Cancellation?" style="strokeWidth=2;html=1;shape=mxgraph.flowchart.decision;whiteSpace=wrap;" vertex="1" parent="1c1d494c118603dd-3">
          <mxGeometry x="393.25" y="210" width="100" height="100" as="geometry" />
        </mxCell>
        <mxCell id="1c1d494c118603dd-34" style="edgeStyle=none;rounded=0;html=1;labelBackgroundColor=none;startArrow=none;startFill=0;startSize=5;endArrow=classicThin;endFill=1;endSize=5;jettySize=auto;orthogonalLoop=1;strokeWidth=1;fontFamily=Verdana;fontSize=12" parent="1c1d494c118603dd-3" edge="1">
          <mxGeometry relative="1" as="geometry">
            <mxPoint x="442.72" y="180" as="sourcePoint" />
            <mxPoint x="442.72" y="210" as="targetPoint" />
          </mxGeometry>
        </mxCell>
        <mxCell id="vuhNljjnOxjqlDmO4YdQ-6" value="" style="endArrow=classic;html=1;rounded=0;exitX=0;exitY=0.5;exitDx=0;exitDy=0;exitPerimeter=0;" edge="1" parent="1c1d494c118603dd-3" source="vuhNljjnOxjqlDmO4YdQ-4">
          <mxGeometry width="50" height="50" relative="1" as="geometry">
            <mxPoint x="310" y="290" as="sourcePoint" />
            <mxPoint x="310" y="320" as="targetPoint" />
            <Array as="points">
              <mxPoint x="340" y="260" />
              <mxPoint x="310" y="260" />
            </Array>
          </mxGeometry>
        </mxCell>
        <mxCell id="vuhNljjnOxjqlDmO4YdQ-7" value="Yes" style="text;html=1;align=center;verticalAlign=middle;whiteSpace=wrap;rounded=0;" vertex="1" parent="1c1d494c118603dd-3">
          <mxGeometry x="333.25" y="240" width="60" height="30" as="geometry" />
        </mxCell>
        <mxCell id="vuhNljjnOxjqlDmO4YdQ-9" value="" style="endArrow=classic;html=1;rounded=0;exitX=1;exitY=0.5;exitDx=0;exitDy=0;exitPerimeter=0;" edge="1" parent="1c1d494c118603dd-3" source="vuhNljjnOxjqlDmO4YdQ-4">
          <mxGeometry width="50" height="50" relative="1" as="geometry">
            <mxPoint x="500" y="320" as="sourcePoint" />
            <mxPoint x="590" y="320" as="targetPoint" />
            <Array as="points">
              <mxPoint x="500" y="260" />
              <mxPoint x="590" y="260" />
            </Array>
          </mxGeometry>
        </mxCell>
        <mxCell id="vuhNljjnOxjqlDmO4YdQ-25" style="edgeStyle=orthogonalEdgeStyle;rounded=0;orthogonalLoop=1;jettySize=auto;html=1;entryX=0.5;entryY=0;entryDx=0;entryDy=0;" edge="1" parent="1c1d494c118603dd-3" source="vuhNljjnOxjqlDmO4YdQ-11" target="vuhNljjnOxjqlDmO4YdQ-14">
          <mxGeometry relative="1" as="geometry" />
        </mxCell>
        <mxCell id="vuhNljjnOxjqlDmO4YdQ-27" style="edgeStyle=orthogonalEdgeStyle;rounded=0;orthogonalLoop=1;jettySize=auto;html=1;entryX=0.5;entryY=0;entryDx=0;entryDy=0;" edge="1" parent="1c1d494c118603dd-3" source="vuhNljjnOxjqlDmO4YdQ-11" target="1c1d494c118603dd-7">
          <mxGeometry relative="1" as="geometry" />
        </mxCell>
        <mxCell id="vuhNljjnOxjqlDmO4YdQ-28" style="edgeStyle=orthogonalEdgeStyle;rounded=0;orthogonalLoop=1;jettySize=auto;html=1;entryX=0.5;entryY=0;entryDx=0;entryDy=0;" edge="1" parent="1c1d494c118603dd-3" source="vuhNljjnOxjqlDmO4YdQ-11" target="vuhNljjnOxjqlDmO4YdQ-15">
          <mxGeometry relative="1" as="geometry" />
        </mxCell>
        <mxCell id="vuhNljjnOxjqlDmO4YdQ-11" value="" style="whiteSpace=wrap;html=1;rounded=0;shadow=0;comic=0;labelBackgroundColor=none;strokeWidth=1;fillColor=#000000;fontFamily=Verdana;fontSize=12;align=center;rotation=0;" vertex="1" parent="1c1d494c118603dd-3">
          <mxGeometry x="70" y="320" width="370" height="10" as="geometry" />
        </mxCell>
        <mxCell id="vuhNljjnOxjqlDmO4YdQ-39" style="edgeStyle=orthogonalEdgeStyle;rounded=0;orthogonalLoop=1;jettySize=auto;html=1;entryX=1;entryY=0.5;entryDx=0;entryDy=0;entryPerimeter=0;" edge="1" parent="1c1d494c118603dd-3" source="vuhNljjnOxjqlDmO4YdQ-12" target="vuhNljjnOxjqlDmO4YdQ-36">
          <mxGeometry relative="1" as="geometry">
            <mxPoint x="590" y="500" as="targetPoint" />
          </mxGeometry>
        </mxCell>
        <mxCell id="vuhNljjnOxjqlDmO4YdQ-12" value="Notify Student Rejection" style="rounded=1;whiteSpace=wrap;html=1;shadow=0;comic=0;labelBackgroundColor=none;strokeWidth=1;fontFamily=Verdana;fontSize=12;align=center;arcSize=50;" vertex="1" parent="1c1d494c118603dd-3">
          <mxGeometry x="540" y="320" width="100" height="30" as="geometry" />
        </mxCell>
        <mxCell id="1c1d494c118603dd-7" value="Update Schdudle" style="rounded=1;whiteSpace=wrap;html=1;shadow=0;comic=0;labelBackgroundColor=none;strokeWidth=1;fontFamily=Verdana;fontSize=12;align=center;arcSize=50;" parent="1c1d494c118603dd-3" vertex="1">
          <mxGeometry x="50" y="370" width="100" height="30" as="geometry" />
        </mxCell>
        <mxCell id="vuhNljjnOxjqlDmO4YdQ-14" value="Process Refund" style="rounded=1;whiteSpace=wrap;html=1;shadow=0;comic=0;labelBackgroundColor=none;strokeWidth=1;fontFamily=Verdana;fontSize=12;align=center;arcSize=50;" vertex="1" parent="1c1d494c118603dd-3">
          <mxGeometry x="160" y="370" width="100" height="30" as="geometry" />
        </mxCell>
        <mxCell id="vuhNljjnOxjqlDmO4YdQ-43" style="edgeStyle=orthogonalEdgeStyle;rounded=0;orthogonalLoop=1;jettySize=auto;html=1;" edge="1" parent="1c1d494c118603dd-3" source="vuhNljjnOxjqlDmO4YdQ-15">
          <mxGeometry relative="1" as="geometry">
            <mxPoint x="350" y="443.4444274902344" as="targetPoint" />
          </mxGeometry>
        </mxCell>
        <mxCell id="vuhNljjnOxjqlDmO4YdQ-15" value="Send Cancellation Recipt" style="rounded=1;whiteSpace=wrap;html=1;shadow=0;comic=0;labelBackgroundColor=none;strokeWidth=1;fontFamily=Verdana;fontSize=12;align=center;arcSize=50;" vertex="1" parent="1c1d494c118603dd-3">
          <mxGeometry x="270" y="370" width="160" height="30" as="geometry" />
        </mxCell>
        <mxCell id="vuhNljjnOxjqlDmO4YdQ-40" style="edgeStyle=orthogonalEdgeStyle;rounded=0;orthogonalLoop=1;jettySize=auto;html=1;" edge="1" parent="1c1d494c118603dd-3" source="vuhNljjnOxjqlDmO4YdQ-36">
          <mxGeometry relative="1" as="geometry">
            <mxPoint x="460" y="530" as="targetPoint" />
          </mxGeometry>
        </mxCell>
        <mxCell id="vuhNljjnOxjqlDmO4YdQ-36" value="" style="strokeWidth=2;html=1;shape=mxgraph.flowchart.decision;whiteSpace=wrap;" vertex="1" parent="1c1d494c118603dd-3">
          <mxGeometry x="440" y="480" width="40" height="30" as="geometry" />
        </mxCell>
        <mxCell id="vuhNljjnOxjqlDmO4YdQ-41" value="" style="ellipse;html=1;shape=endState;fillColor=#000000;strokeColor=#ff0000;" vertex="1" parent="1c1d494c118603dd-3">
          <mxGeometry x="445" y="530" width="30" height="30" as="geometry" />
        </mxCell>
        <mxCell id="vuhNljjnOxjqlDmO4YdQ-29" value="" style="whiteSpace=wrap;html=1;rounded=0;shadow=0;comic=0;labelBackgroundColor=none;strokeWidth=1;fillColor=#000000;fontFamily=Verdana;fontSize=12;align=center;rotation=0;" vertex="1" parent="1c1d494c118603dd-3">
          <mxGeometry x="70" y="445" width="370" height="10" as="geometry" />
        </mxCell>
        <mxCell id="vuhNljjnOxjqlDmO4YdQ-32" style="edgeStyle=orthogonalEdgeStyle;rounded=0;orthogonalLoop=1;jettySize=auto;html=1;entryX=0.081;entryY=0;entryDx=0;entryDy=0;entryPerimeter=0;" edge="1" parent="1c1d494c118603dd-3" source="1c1d494c118603dd-7" target="vuhNljjnOxjqlDmO4YdQ-29">
          <mxGeometry relative="1" as="geometry" />
        </mxCell>
        <mxCell id="vuhNljjnOxjqlDmO4YdQ-33" style="edgeStyle=orthogonalEdgeStyle;rounded=0;orthogonalLoop=1;jettySize=auto;html=1;entryX=0.378;entryY=0;entryDx=0;entryDy=0;entryPerimeter=0;" edge="1" parent="1c1d494c118603dd-3" source="vuhNljjnOxjqlDmO4YdQ-14" target="vuhNljjnOxjqlDmO4YdQ-29">
          <mxGeometry relative="1" as="geometry" />
        </mxCell>
        <mxCell id="vuhNljjnOxjqlDmO4YdQ-44" style="edgeStyle=orthogonalEdgeStyle;rounded=0;orthogonalLoop=1;jettySize=auto;html=1;entryX=0;entryY=0.5;entryDx=0;entryDy=0;entryPerimeter=0;" edge="1" parent="1c1d494c118603dd-3" source="vuhNljjnOxjqlDmO4YdQ-29" target="vuhNljjnOxjqlDmO4YdQ-36">
          <mxGeometry relative="1" as="geometry" />
        </mxCell>
        <mxCell id="vuhNljjnOxjqlDmO4YdQ-10" value="No" style="text;html=1;align=center;verticalAlign=middle;whiteSpace=wrap;rounded=0;" vertex="1" parent="1">
          <mxGeometry x="708.25" y="259" width="60" height="30" as="geometry" />
        </mxCell>
      </root>
    </mxGraphModel>
  </diagram>
</mxfile>
